:FULLY-SPECIFIED
:FORCE-ALL-JOINTS-BE-3DOF
:DEGREES
204
root 4.972 15.4197 -25.5226 7.3355 5.65158 2.29209
lfemur -3.76957 -0.0419894 5.97637
ltibia 17.7451 0 0
lfoot -20.2388 -16.8273 0
ltoes 47.0511 0 0
rfemur -25.7123 -14.927 -5.2433
rtibia 46.2689 0 0
rfoot -26.4094 7.6277 0
rtoes 54.7122 0 0
lowerback -1.66237 -2.85359 -0.672376
upperback -0.0586049 -3.73319 -5.0279
thorax 0.584037 -1.86654 -4.87695
lowerneck -11.9956 -0.114123 3.84443
upperneck 3.25866 -0.913544 2.7184
head 3.25002 -0.272347 0.147306
lclavicle -1.1459e-14 1.14398e-14 0
lhumerus -56.73 -42.2231 115.368
lradius 55.7744 0 0
lwrist 25.353 0 0
lhand 28.0406 27.7016 0
lfingers 7.12502 0 0
lthumb 51.7429 46.4653 0
rclavicle -1.1459e-14 1.14398e-14 0
rhumerus -35.662 20.2234 -52.8801
rradius 106.857 0 0
rwrist -4.59423 0 0
rhand -5.40097 -22.0628 0
rfingers 7.12502 0 0
rthumb 20.1576 -605.748 0
205
root 4.9487 15.4015 -25.5352 7.39383 5.33311 2.20237
lfemur -3.82488 0.385678 6.04251
ltibia 18.0883 0 0
lfoot -20.5469 -16.3892 0
ltoes 46.6581 0 0
rfemur -26.145 -15.2567 -5.01702
rtibia 46.5156 0 0
rfoot -26.5256 8.22787 0
rtoes 55.0658 0 0
lowerback -1.56184 -2.881 -0.630598
upperback -0.0372032 -3.77452 -4.94928
thorax 0.548965 -1.88744 -4.81381
lowerneck -11.9599 0.0709152 3.94922
upperneck 3.23341 -0.671763 2.59551
head 3.23375 -0.157191 0.104282
lclavicle -9.58975e-15 1.32352e-14 0
lhumerus -56.9074 -42.2573 115.524
lradius 55.8651 0 0
lwrist 25.582 0 0
lhand 27.4276 27.3541 0
lfingers 7.12502 0 0
lthumb 51.192 46.4827 0
rclavicle -9.58975e-15 1.32352e-14 0
rhumerus -34.2297 18.9812 -51.259
rradius 106.011 0 0
rwrist -4.37322 0 0
rhand -7.17129 -22.9733 0
rfingers 7.12502 0 0
rthumb 18.468 -618.535 0
206
root 4.9254 15.3833 -25.5478 7.45217 5.01463 2.11265
lfemur -3.8802 0.813345 6.10865
ltibia 18.4315 0 0
lfoot -20.855 -15.9511 0
ltoes 46.2652 0 0
rfemur -26.5778 -15.5865 -4.79073
rtibia 46.7624 0 0
rfoot -26.6418 8.82803 0
rtoes 55.4194 0 0
lowerback -1.46131 -2.90841 -0.588819
upperback -0.0158015 -3.81585 -4.87067
thorax 0.513892 -1.90834 -4.75068
lowerneck -11.9242 0.255953 4.054
upperneck 3.20815 -0.429982 2.47261
head 3.21748 -0.0420358 0.0612582
lclavicle -7.72053e-15 1.50307e-14 0
lhumerus -57.0848 -42.2916 115.681
lradius 55.9557 0 0
lwrist 25.811 0 0
lhand 26.8145 27.0066 0
lfingers 7.12502 0 0
lthumb 50.641 46.5 0
rclavicle -7.72053e-15 1.50307e-14 0
rhumerus -32.7974 17.7389 -49.6379
rradius 105.166 0 0
rwrist -4.15222 0 0
rhand -8.94161 -23.8838 0
rfingers 7.12502 0 0
rthumb 16.7784 -631.322 0
207
root 4.90211 15.3652 -25.5605 7.5105 4.69615 2.02293
lfemur -3.93552 1.24101 6.17478
ltibia 18.7747 0 0
lfoot -21.163 -15.513 0
ltoes 45.8722 0 0
rfemur -27.0106 -15.9163 -4.56445
rtibia 47.0091 0 0
rfoot -26.758 9.42819 0
rtoes 55.7731 0 0
lowerback -1.36078 -2.93582 -0.547041
upperback 0.00560019 -3.85719 -4.79205
thorax 0.47882 -1.92924 -4.68754
lowerneck -11.8885 0.440991 4.15879
upperneck 3.18289 -0.188201 2.34972
head 3.20121 0.0731197 0.0182343
lclavicle -5.85131e-15 1.68262e-14 0
lhumerus -57.2621 -42.3258 115.837
lradius 56.0464 0 0
lwrist 26.04 0 0
lhand 26.2014 26.6591 0
lfingers 7.12502 0 0
lthumb 50.0901 46.5174 0
rclavicle -5.85131e-15 1.68262e-14 0
rhumerus -31.3652 16.4966 -48.0168
rradius 104.32 0 0
rwrist -3.93121 0 0
rhand -10.7119 -24.7944 0
rfingers 7.12502 0 0
rthumb 15.0889 -644.108 0
208
root 4.87881 15.347 -25.5731 7.56884 4.37767 1.93321
lfemur -3.99083 1.66868 6.24092
ltibia 19.1179 0 0
lfoot -21.4711 -15.0749 0
ltoes 45.4793 0 0
rfemur -27.4434 -16.246 -4.33817
rtibia 47.2558 0 0
rfoot -26.8742 10.0284 0
rtoes 56.1267 0 0
lowerback -1.26025 -2.96323 -0.505263
upperback 0.0270019 -3.89852 -4.71343
thorax 0.443747 -1.95014 -4.6244
lowerneck -11.8528 0.626029 4.26358
upperneck 3.15764 0.0535803 2.22683
head 3.18494 0.188275 -0.0247896
lclavicle -3.98209e-15 1.86217e-14 0
lhumerus -57.4395 -42.36 115.993
lradius 56.1371 0 0
lwrist 26.269 0 0
lhand 25.5884 26.3116 0
lfingers 7.12502 0 0
lthumb 49.5392 46.5348 0
rclavicle -3.98209e-15 1.86217e-14 0
rhumerus -29.9329 15.2544 -46.3957
rradius 103.475 0 0
rwrist -3.7102 0 0
rhand -12.4822 -25.7049 0
rfingers 7.12502 0 0
rthumb 13.3993 -656.895 0
209
root 4.85551 15.3289 -25.5857 7.62717 4.0592 1.84348
lfemur -4.04615 2.09635 6.30705
ltibia 19.4611 0 0
lfoot -21.7792 -14.6368 0
ltoes 45.0863 0 0
rfemur -27.8761 -16.5758 -4.11188
rtibia 47.5026 0 0
rfoot -26.9904 10.6285 0
rtoes 56.4803 0 0
lowerback -1.15972 -2.99064 -0.463484
upperback 0.0484036 -3.93986 -4.63481
thorax 0.408675 -1.97105 -4.56127
lowerneck -11.8171 0.811067 4.36837
upperneck 3.13238 0.295361 2.10393
head 3.16868 0.303431 -0.0678136
lclavicle -2.11287e-15 2.04171e-14 0
lhumerus -57.6169 -42.3943 116.149
lradius 56.2278 0 0
lwrist 26.498 0 0
lhand 24.9753 25.9641 0
lfingers 7.12502 0 0
lthumb 48.9882 46.5522 0
rclavicle -2.11287e-15 2.04171e-14 0
rhumerus -28.5007 14.0121 -44.7746
rradius 102.629 0 0
rwrist -3.48919 0 0
rhand -14.2526 -26.6154 0
rfingers 7.12502 0 0
rthumb 11.7097 -669.681 0
